<svg xmlns="http://www.w3.org/2000/svg" width="60" height="56" fill="none"><path fill="#fff" fill-opacity=".29" d="M50.625 0H9.375C4.205 0 0 4.222 0 9.412v32.94c0 5.19 4.205 9.413 9.375 9.413h22.266c.894 0 1.71-.51 2.104-1.317a2.36 2.36 0 0 0-.25-2.476l-6.131-7.954L44.355 18.32l10.958 13.123v3.968c0 1.3 1.049 2.353 2.343 2.353A2.348 2.348 0 0 0 60 35.412v-26C60 4.222 55.794 0 50.625 0Zm-4.532 13.077a2.339 2.339 0 0 0-3.639.057L24.406 36.181l-6.146-7.974a2.34 2.34 0 0 0-1.854-.913h-.003a2.34 2.34 0 0 0-1.854.918L9.39 34.944a2.36 2.36 0 0 0 .428 3.3c1.026.792 2.498.6 3.287-.43l3.306-4.315 10.451 13.56H9.375c-2.585 0-4.688-2.111-4.688-4.706V9.412c0-2.595 2.103-4.706 4.688-4.706h41.25c2.584 0 4.688 2.111 4.688 4.706v14.707l-9.22-11.042ZM16.406 8.47c-3.877 0-7.031 3.166-7.031 7.058 0 3.893 3.154 7.06 7.031 7.06 3.878 0 7.032-3.167 7.032-7.06 0-3.892-3.154-7.058-7.032-7.058Zm0 9.411a2.351 2.351 0 0 1-2.343-2.353 2.351 2.351 0 0 1 2.343-2.352 2.351 2.351 0 0 1 2.344 2.352 2.351 2.351 0 0 1-2.344 2.353ZM60 44.824c0 1.3-1.05 2.352-2.344 2.352h-6.445v6.471c0 1.3-1.05 2.353-2.344 2.353a2.348 2.348 0 0 1-2.344-2.353v-6.47h-6.445a2.348 2.348 0 0 1-2.344-2.353c0-1.3 1.05-2.353 2.344-2.353h6.445V36c0-1.3 1.05-2.353 2.344-2.353A2.348 2.348 0 0 1 51.211 36v6.47h6.445A2.348 2.348 0 0 1 60 44.825Z"/></svg>